# Blender 4.5.4 LTS
# www.blender.org
o Cube.216
v 0.480671 -0.180644 12.339401
v 0.480671 0.090493 12.339401
v 0.480671 -0.180644 0.480668
v 0.480671 0.090493 0.480668
v 12.339405 -0.180644 12.339401
v 12.339405 0.090493 12.339401
v 12.339405 -0.180644 0.480668
v 12.339405 0.090493 0.480668
v -0.000006 -0.180701 -0.000010
v -0.000006 -0.180701 12.822774
v -0.000006 0.090493 12.822774
v -0.000006 0.090493 -0.000010
v 12.822778 -0.180701 -0.000010
v 12.822778 0.090493 -0.000010
v 12.822778 -0.180701 12.822774
v 12.822778 0.090493 12.822774
vn -1.0000 -0.0000 -0.0000
vn -0.0000 -0.0000 -1.0000
vn 1.0000 -0.0000 -0.0000
vn -0.0000 -0.0000 1.0000
vn 0.0001 -1.0000 -0.0000
vn -0.0000 1.0000 -0.0000
vn -0.0000 -1.0000 0.0001
vn -0.0001 -1.0000 -0.0000
vn -0.0000 -1.0000 -0.0001
vt 0.625000 0.000000
vt 0.375000 0.250000
vt 0.375000 0.000000
vt 0.625000 0.250000
vt 0.375000 0.500000
vt 0.625000 0.500000
vt 0.375000 0.750000
vt 0.625000 0.750000
vt 0.375000 1.000000
vt 0.634373 0.509373
vt 0.134374 0.509373
vt 0.365626 0.509373
vt 0.634373 0.740626
vt 0.365626 0.740626
vt 0.134374 0.740626
vt 0.125000 0.500000
vt 0.865626 0.740626
vt 0.875000 0.500000
vt 0.875000 0.750000
vt 0.865626 0.509373
vt 0.125000 0.750000
vt 0.625000 1.000000
s 0
f 11/1/1 9/2/1 10/3/1
f 12/4/2 13/5/2 9/2/2
f 14/6/3 15/7/3 13/5/3
f 16/8/4 10/9/4 15/7/4
f 8/10/4 3/11/4 7/12/4
f 6/13/1 7/12/1 5/14/1
f 1/15/5 9/16/5 3/11/5
f 2/17/6 12/18/6 11/19/6
f 7/12/7 9/16/7 13/5/7
f 8/10/6 12/18/6 4/20/6
f 5/14/8 13/5/8 15/7/8
f 6/13/6 14/6/6 8/10/6
f 5/14/9 10/21/9 1/15/9
f 6/13/6 11/19/6 16/8/6
f 4/20/3 1/15/3 3/11/3
f 2/17/2 5/14/2 1/15/2
f 11/1/1 12/4/1 9/2/1
f 12/4/2 14/6/2 13/5/2
f 14/6/3 16/8/3 15/7/3
f 16/8/4 11/22/4 10/9/4
f 8/10/4 4/20/4 3/11/4
f 6/13/1 8/10/1 7/12/1
f 1/15/5 10/21/5 9/16/5
f 2/17/6 4/20/6 12/18/6
f 7/12/7 3/11/7 9/16/7
f 8/10/6 14/6/6 12/18/6
f 5/14/8 7/12/8 13/5/8
f 6/13/6 16/8/6 14/6/6
f 5/14/9 15/7/9 10/21/9
f 6/13/6 2/17/6 11/19/6
f 4/20/3 2/17/3 1/15/3
f 2/17/2 6/13/2 5/14/2
