# Blender 4.5.4 LTS
# www.blender.org
o Cube.216
v 0.480671 -0.180644 12.339401
v 0.480671 0.090493 12.339401
v 0.480671 -0.180644 0.480668
v 0.480671 0.090493 0.480668
v 12.339405 -0.180644 12.339401
v 12.339405 0.090493 12.339401
v 12.339405 -0.180644 0.480668
v 12.339405 0.090493 0.480668
v -0.000006 -0.180701 -0.000010
v -0.000006 -0.180701 12.822774
v -0.000006 0.090493 12.822774
v -0.000006 0.090493 -0.000010
v 12.822778 -0.180701 -0.000010
v 12.822778 0.090493 -0.000010
v 12.822778 -0.180701 12.822774
v 12.822778 0.090493 12.822774
vn -1.0000 -0.0000 -0.0000
vn -0.0000 -0.0000 -1.0000
vn 1.0000 -0.0000 -0.0000
vn -0.0000 -0.0000 1.0000
vn 0.0001 -1.0000 -0.0000
vn -0.0000 1.0000 -0.0000
vn -0.0000 -1.0000 0.0001
vn -0.0001 -1.0000 -0.0000
vn -0.0000 -1.0000 -0.0001
vt 0.515312 -0.552069
vt 0.484688 1.552069
vt 0.484688 -0.552069
vt 0.529681 -1.214457
vt 0.490162 1.885169
vt 0.490162 -1.214457
vt 0.508183 -0.689673
vt 0.432290 1.569197
vt 0.432290 -0.689673
vt 0.503001 -2.943079
vt 0.467235 3.793305
vt 0.467235 -2.943079
vt 0.530249 -2.112150
vt 0.469751 3.112150
vt 0.469751 -2.112150
vt 0.544282 1.574077
vt 0.465639 -0.416760
vt 0.465639 1.574078
vt -2.368266 2.548541
vt -2.441799 0.500000
vt -2.368266 0.579799
vt 3.368266 2.548541
vt 3.441800 0.500000
vt 3.441800 2.628342
vt -0.554133 0.579800
vt -0.480600 0.500000
vt 1.554133 0.579799
vt 3.368266 0.579800
vt -0.554133 2.548541
vt -0.480600 2.628342
vt 1.554133 2.548541
vt 1.480600 0.500000
vt -2.441799 2.628342
vt 1.480600 2.628342
vt 0.515110 -0.806399
vt 0.484890 1.806399
vt 0.484890 -0.806399
vt 0.517494 -0.641878
vt 0.482506 1.641878
vt 0.482506 -0.641878
vt 0.515312 1.552069
vt 0.529681 1.885169
vt 0.508183 1.569197
vt 0.503001 3.793305
vt 0.530249 3.112150
vt 0.544282 -0.416760
vt 0.515110 1.806399
vt 0.517494 1.641878
s 0
f 11/1/1 9/2/1 10/3/1
f 12/4/2 13/5/2 9/6/2
f 14/7/3 15/8/3 13/9/3
f 16/10/4 10/11/4 15/12/4
f 8/13/4 3/14/4 7/15/4
f 6/16/1 7/17/1 5/18/1
f 1/19/5 9/20/5 3/21/5
f 2/22/6 12/23/6 11/24/6
f 7/25/7 9/20/7 13/26/7
f 8/27/6 12/23/6 4/28/6
f 5/29/8 13/26/8 15/30/8
f 6/31/6 14/32/6 8/27/6
f 5/29/9 10/33/9 1/19/9
f 6/31/6 11/24/6 16/34/6
f 4/35/3 1/36/3 3/37/3
f 2/38/2 5/39/2 1/40/2
f 11/1/1 12/41/1 9/2/1
f 12/4/2 14/42/2 13/5/2
f 14/7/3 16/43/3 15/8/3
f 16/10/4 11/44/4 10/11/4
f 8/13/4 4/45/4 3/14/4
f 6/16/1 8/46/1 7/17/1
f 1/19/5 10/33/5 9/20/5
f 2/22/6 4/28/6 12/23/6
f 7/25/7 3/21/7 9/20/7
f 8/27/6 14/32/6 12/23/6
f 5/29/8 7/25/8 13/26/8
f 6/31/6 16/34/6 14/32/6
f 5/29/9 15/30/9 10/33/9
f 6/31/6 2/22/6 11/24/6
f 4/35/3 2/47/3 1/36/3
f 2/38/2 6/48/2 5/39/2
