# Blender 4.5.4 LTS
# www.blender.org
o Cube.208
v 0.000000 0.000000 2.000000
v 0.000000 70.347984 2.000000
v 0.000000 0.000000 -0.000001
v 0.000000 70.347984 -0.000001
v 143.804321 0.000000 2.000000
v 143.804321 70.347984 2.000000
v 143.804321 0.000000 -0.000001
v 143.804321 70.347984 -0.000001
v 8.501091 70.347984 2.000000
v 8.503372 0.000000 2.000000
v 0.000000 0.000000 4.866985
v 0.000000 70.347984 4.866985
v 8.501091 70.347984 4.866985
v 8.503372 0.000000 4.866985
v 69.026443 70.347984 2.000000
v 68.910294 0.000000 2.000000
v 79.920517 70.347984 2.000000
v 79.806732 0.000000 2.000000
v 142.020508 0.000000 2.000000
v 142.021423 70.347984 2.000000
v 143.804321 70.347984 4.865662
v 143.804321 0.000000 4.865662
v 142.020508 0.000000 4.865662
v 79.920517 70.347984 4.865662
v 69.026443 70.347984 4.865662
v 68.910294 0.000000 4.865662
v 79.806732 0.000000 4.865662
v 142.021423 70.347984 4.865662
v 0.000000 16.751249 2.000000
v 0.000000 16.751249 -0.000001
v 143.804321 16.751249 -0.000001
v 143.804321 16.751249 2.000000
v 8.502838 16.751249 2.000000
v 0.000000 16.751249 4.866985
v 8.502838 16.751249 4.866985
v 68.937950 16.751249 2.000000
v 79.833824 16.751249 2.000000
v 142.020721 16.751249 2.000000
v 143.804321 16.751249 4.865662
v 68.937950 16.751249 4.865662
v 79.833824 16.751249 4.865662
v 142.020721 16.751249 4.865662
v 8.502838 16.751249 4.862311
v 8.503372 0.000000 4.862311
v 68.910294 0.000000 4.862311
v 68.937950 16.751249 4.862311
v 79.833824 16.751249 4.862311
v 79.806732 0.000000 4.862311
v 142.020508 0.000000 4.862311
v 142.020721 16.751249 4.862311
v 8.502838 16.751249 4.862311
v 8.503372 0.000000 4.862311
v 68.910294 0.000000 4.862311
v 68.937950 16.751249 4.862311
v 79.833824 16.751249 4.862311
v 79.806732 0.000000 4.862311
v 142.020508 0.000000 4.862311
v 142.020721 16.751249 4.862311
vn -1.0000 -0.0000 -0.0000
vn -0.0000 -0.0000 -1.0000
vn 1.0000 -0.0000 -0.0000
vn -0.0000 -1.0000 -0.0000
vn -0.0000 1.0000 -0.0000
vn -0.0000 -0.0000 1.0000
vn 1.0000 -0.0016 -0.0000
vn -1.0000 0.0017 -0.0000
vn -1.0000 0.0016 -0.0000
vn 1.0000 -0.0017 -0.0000
vt 1.000000 0.000000
vt 0.000000 1.000000
vt 0.000000 0.000000
vt 2.874059 -1.874059
vt -1.874059 2.874059
vt -1.874059 -1.874059
vt 0.853553 0.853553
vt 0.146447 0.146447
vt 0.000000 0.500000
vt -0.507233 0.364073
vt 1.507233 0.635927
vt 1.507233 0.364073
vt 3.079955 0.258442
vt -2.079956 0.741558
vt -2.079956 0.258442
vt -2.224509 -1.386987
vt 3.224509 2.386987
vt -2.224509 2.386987
vt 1.742947 0.316567
vt -0.742950 0.683433
vt -0.742950 0.316567
vt -0.655666 -0.842229
vt 1.655662 1.842229
vt -0.655666 1.842229
vt -0.972353 0.372238
vt 1.972355 0.627762
vt -0.972353 0.627762
vt -1.296633 0.280813
vt 2.296635 0.719187
vt -1.296633 0.719187
vt 0.378560 0.829333
vt 0.442435 0.829601
vt 1.563136 -0.563136
vt -0.563136 1.563136
vt -0.563136 -0.563136
vt 1.849151 0.420924
vt -0.849155 0.579076
vt -0.849155 0.420924
vt 0.139244 0.293168
vt 0.860756 0.706832
vt 0.139244 0.706832
vt 0.166669 0.362634
vt 0.833331 0.637366
vt 0.166669 0.637366
vt 1.376071 0.445602
vt -0.376072 0.554398
vt -0.376072 0.445602
vt 1.842256 -1.193358
vt -0.842256 2.193358
vt -0.842256 -1.193358
vt 0.378560 0.817108
vt 0.442435 0.817394
vt 1.306941 0.279389
vt -0.306940 0.720611
vt -0.306940 0.279389
vt 0.442435 0.914206
vt 0.378560 0.914171
vt 1.836865 0.459997
vt -0.836865 0.540003
vt -0.836865 0.459997
vt 1.626111 0.456323
vt -0.626112 0.543678
vt -0.626112 0.456323
vt 0.442435 0.766517
vt 0.378560 0.766842
vt 0.020591 -1.029475
vt 0.979409 2.029475
vt 0.020591 2.029475
vt 0.038435 -0.647898
vt 0.961566 1.647898
vt 0.038435 1.647898
vt 1.000000 1.000000
vt 2.874059 2.874059
vt 0.146447 0.853553
vt 0.500000 1.000000
vt 1.000000 0.500000
vt 0.853553 0.146447
vt 0.500000 0.000000
vt -0.507233 0.635927
vt 3.079955 0.741558
vt 3.224509 -1.386987
vt 1.742947 0.683433
vt 1.655662 -0.842229
vt 1.972355 0.372238
vt 2.296635 0.280813
vt 1.563136 1.563136
vt 1.849151 0.579076
vt 0.860756 0.293168
vt 0.833331 0.362634
vt 1.376071 0.554398
vt 1.842256 2.193358
vt 1.306941 0.720611
vt 0.442435 0.914206
vt 1.836865 0.540003
vt 1.626111 0.543678
vt 0.979409 -1.029475
vt 0.961566 -0.647898
s 0
f 2/1/1 30/2/1 29/3/1
f 4/1/2 31/2/2 30/3/2
f 8/1/3 32/2/3 31/3/3
f 19/4/1 42/5/1 38/6/1
f 7/7/4 16/8/4 10/9/4
f 4/7/5 17/8/5 20/9/5
f 9/10/3 35/11/3 33/12/3
f 13/13/6 34/14/6 35/15/6
f 1/1/1 34/2/1 29/3/1
f 10/1/4 11/2/4 1/3/4
f 2/1/5 13/2/5 9/3/5
f 36/16/6 9/17/6 33/18/6
f 17/19/7 41/20/7 37/21/7
f 38/22/6 17/23/6 37/24/6
f 39/25/6 28/26/6 42/27/6
f 41/28/6 25/29/6 40/30/6
f 6/1/3 39/2/3 32/3/3
f 18/1/4 26/2/4 16/3/4
f 16/31/8 40/32/8 36/32/8
f 15/33/5 24/34/5 17/35/5
f 5/1/4 23/2/4 19/3/4
f 20/1/5 21/2/5 6/3/5
f 36/36/8 25/37/8 15/38/8
f 32/1/3 22/2/3 5/3/3
f 27/39/6 40/40/6 26/41/6
f 22/42/6 42/43/6 23/44/6
f 33/45/5 46/46/5 36/47/5
f 37/48/7 27/49/7 18/50/7
f 18/51/9 47/52/9 37/52/9
f 29/1/1 12/2/1 2/3/1
f 35/53/6 11/54/6 14/55/6
f 33/56/3 14/57/3 10/57/3
f 38/58/1 28/59/1 20/60/1
f 31/1/3 5/2/3 7/3/3
f 30/1/2 7/2/2 3/3/2
f 29/1/1 3/2/1 1/3/1
f 16/1/4 44/2/4 10/3/4
f 37/61/5 50/62/5 38/63/5
f 38/64/3 49/65/3 19/65/3
f 19/1/4 48/2/4 18/3/4
f 10/57/1 43/56/1 33/56/1
f 36/32/10 45/31/10 16/31/10
f 53/66/6 51/67/6 52/68/6
f 57/69/6 55/70/6 56/71/6
f 2/1/1 4/72/1 30/2/1
f 4/1/2 8/72/2 31/2/2
f 8/1/3 6/72/3 32/2/3
f 19/4/1 23/73/1 42/5/1
f 1/74/4 3/75/4 7/7/4
f 7/7/4 5/76/4 19/77/4
f 7/7/4 19/77/4 18/78/4
f 10/9/4 1/74/4 7/7/4
f 7/7/4 18/78/4 16/8/4
f 6/74/5 8/75/5 4/7/5
f 4/7/5 2/76/5 9/77/5
f 4/7/5 9/77/5 15/78/5
f 20/9/5 6/74/5 4/7/5
f 4/7/5 15/78/5 17/8/5
f 9/10/3 13/79/3 35/11/3
f 13/13/6 12/80/6 34/14/6
f 1/1/1 11/72/1 34/2/1
f 10/1/4 14/72/4 11/2/4
f 2/1/5 12/72/5 13/2/5
f 36/16/6 15/81/6 9/17/6
f 17/19/7 24/82/7 41/20/7
f 38/22/6 20/83/6 17/23/6
f 39/25/6 21/84/6 28/26/6
f 41/28/6 24/85/6 25/29/6
f 6/1/3 21/72/3 39/2/3
f 18/1/4 27/72/4 26/2/4
f 16/31/8 26/31/8 40/32/8
f 15/33/5 25/86/5 24/34/5
f 5/1/4 22/72/4 23/2/4
f 20/1/5 28/72/5 21/2/5
f 36/36/8 40/87/8 25/37/8
f 32/1/3 39/72/3 22/2/3
f 27/39/6 41/88/6 40/40/6
f 22/42/6 39/89/6 42/43/6
f 33/45/5 43/90/5 46/46/5
f 37/48/7 41/91/7 27/49/7
f 18/51/9 48/51/9 47/52/9
f 29/1/1 34/72/1 12/2/1
f 35/53/6 34/92/6 11/54/6
f 33/56/3 35/93/3 14/57/3
f 38/58/1 42/94/1 28/59/1
f 31/1/3 32/72/3 5/2/3
f 30/1/2 31/72/2 7/2/2
f 29/1/1 30/72/1 3/2/1
f 16/1/4 45/72/4 44/2/4
f 37/61/5 47/95/5 50/62/5
f 38/64/3 50/64/3 49/65/3
f 19/1/4 49/72/4 48/2/4
f 10/57/1 44/57/1 43/56/1
f 36/32/10 46/32/10 45/31/10
f 53/66/6 54/96/6 51/67/6
f 57/69/6 58/97/6 55/70/6
