# Blender 4.5.4 LTS
# www.blender.org
o Cube.210
v 0.000000 0.000000 2.387837
v 0.000000 60.230465 2.387837
v 0.000000 0.000000 0.000002
v 0.000000 60.230465 0.000002
v 216.485016 0.000000 2.387837
v 216.485016 60.230465 2.387837
v 216.485016 0.000000 0.000002
v 216.485016 60.230465 0.000002
vn -1.0000 -0.0000 -0.0000
vn -0.0000 -0.0000 -1.0000
vn 1.0000 -0.0000 -0.0000
vn -0.0000 -0.0000 1.0000
vn -0.0000 -1.0000 -0.0000
vn -0.0000 1.0000 -0.0000
vt 0.625000 0.000000
vt 0.375000 0.250000
vt 0.375000 0.000000
vt 1.123053 -1.926281
vt -0.123053 2.926281
vt -0.123053 -1.926281
vt 0.625000 0.500000
vt 0.375000 0.750000
vt 0.375000 0.500000
vt 1.169401 -3.129039
vt -0.169402 4.129039
vt -0.169402 -3.129039
vt 0.125000 0.750000
vt 0.125000 0.500000
vt 0.875000 0.500000
vt 0.625000 0.750000
vt 0.625000 0.250000
vt 1.123053 2.926281
vt 1.169401 4.129039
vt 0.875000 0.750000
s 0
f 2/1/1 3/2/1 1/3/1
f 4/4/2 7/5/2 3/6/2
f 8/7/3 5/8/3 7/9/3
f 6/10/4 1/11/4 5/12/4
f 7/9/5 1/13/5 3/14/5
f 4/15/6 6/16/6 8/7/6
f 2/1/1 4/17/1 3/2/1
f 4/4/2 8/18/2 7/5/2
f 8/7/3 6/16/3 5/8/3
f 6/10/4 2/19/4 1/11/4
f 7/9/5 5/8/5 1/13/5
f 4/15/6 2/20/6 6/16/6
