# Blender 4.5.4 LTS
# www.blender.org
o Cube.209
v 143.804321 0.000000 2.387838
v 143.804321 0.000000 -0.000000
v 0.000000 60.230469 2.387838
v 0.000000 60.230469 -0.000000
v 143.804321 60.230469 -0.000000
v 143.804321 60.230469 2.387838
v 0.000000 50.996155 -0.000000
v 143.804321 50.996155 -0.000000
v 143.804321 50.996155 2.387838
v 0.000000 50.996155 2.387838
v 28.629372 0.000000 -0.000000
v 28.485256 70.347969 -0.000000
v 28.629372 0.000000 2.387838
v 28.485256 70.347969 2.387838
v 28.485256 60.230469 2.387838
v 28.485256 60.230469 -0.000000
v 28.629372 50.996155 -0.000000
v 28.629372 50.996155 2.387838
v 35.140820 70.347969 -0.000000
v 35.140820 0.000000 2.387838
v 35.140820 60.230469 -0.000000
v 35.140820 50.996155 -0.000000
v 35.140820 0.000000 -0.000000
v 35.140820 70.347969 2.387838
v 35.140820 60.230469 2.387838
v 35.140820 50.996155 2.387838
v 117.206268 70.347969 -0.000000
v 117.206268 0.000000 2.387838
v 117.206268 60.230469 -0.000000
v 117.206268 50.996155 -0.000000
v 117.206268 0.000000 -0.000000
v 117.206268 70.347969 2.387838
v 117.206268 60.230469 2.387838
v 117.206268 50.996155 2.387838
v 123.210678 70.347969 -0.000000
v 123.210678 0.000000 2.387838
v 123.210678 60.230469 -0.000000
v 123.210678 50.996155 -0.000000
v 123.210678 0.000000 -0.000000
v 123.210678 70.347969 2.387838
v 123.210678 60.230469 2.387838
v 123.210678 50.996155 2.387838
vn -0.0000 -1.0000 -0.0000
vn -0.0000 -0.0000 1.0000
vn 1.0000 -0.0000 -0.0000
vn -0.0000 -0.0000 -1.0000
vn -1.0000 -0.0000 -0.0000
vn -0.0000 1.0000 -0.0000
vt 0.375000 0.500000
vt 0.339198 0.750000
vt 0.339198 0.500000
vt 0.582627 0.950229
vt 0.555985 1.000000
vt 0.555985 0.950229
vt 0.582627 0.500000
vt 0.555985 0.750000
vt 0.555985 0.500000
vt 0.582627 0.464199
vt 0.555985 0.464199
vt 0.582627 0.000000
vt 0.555985 0.250000
vt 0.555985 0.000000
vt 0.375000 0.464199
vt 0.375000 0.750000
vt 0.555985 0.938909
vt 0.375000 0.950229
vt 0.375000 0.938909
vt 0.582627 0.299771
vt 0.555985 0.299771
vt 0.582627 0.938909
vt 0.825229 0.500000
vt 0.813909 0.750000
vt 0.813909 0.500000
vt 0.625000 0.938909
vt 0.582627 0.796240
vt 0.555985 0.796240
vt 0.375000 0.796240
vt 0.375000 0.311091
vt 0.375000 0.299771
vt 0.582627 0.311091
vt 0.555985 0.311091
vt 0.186091 0.500000
vt 0.174771 0.750000
vt 0.174771 0.500000
vt 0.625000 0.299771
vt 0.555985 0.785801
vt 0.375000 0.785801
vt 0.582627 0.785801
vt 0.671240 0.500000
vt 0.660802 0.750000
vt 0.660802 0.500000
vt 0.625000 0.785801
vt 0.375000 0.453760
vt 0.555985 0.453760
vt 0.328760 0.500000
vt 0.186091 0.750000
vt 0.582627 0.750000
vt 0.582627 0.453760
vt 0.328760 0.750000
vt 0.625000 0.453760
vt 0.625000 0.796240
vt 0.625000 0.950229
vt 0.582627 1.000000
vt 0.582627 0.250000
vt 0.825229 0.750000
vt 0.625000 0.311091
vt 0.671240 0.750000
vt 0.625000 0.464199
s 0
f 2/1/1 36/2/1 39/3/1
f 15/4/2 10/5/2 18/6/2
f 5/7/3 9/8/3 8/9/3
f 37/10/4 8/9/4 38/11/4
f 3/12/5 7/13/5 10/14/5
f 38/11/4 2/1/4 39/15/4
f 8/9/3 1/16/3 2/1/3
f 26/17/2 13/18/2 20/19/2
f 7/13/4 16/20/4 17/21/4
f 25/22/2 18/6/2 26/17/2
f 12/23/6 24/24/6 19/25/6
f 24/26/2 15/4/2 25/22/2
f 33/27/2 26/17/2 34/28/2
f 34/28/2 20/19/2 28/29/2
f 17/21/4 23/30/4 11/31/4
f 17/21/4 21/32/4 22/33/4
f 23/34/1 13/35/1 11/36/1
f 12/37/4 21/32/4 16/20/4
f 42/38/2 28/29/2 36/39/2
f 41/40/2 34/28/2 42/38/2
f 27/41/6 40/42/6 35/43/6
f 40/44/2 33/27/2 41/40/2
f 22/33/4 31/45/4 23/30/4
f 21/32/4 30/46/4 22/33/4
f 31/47/1 20/48/1 23/34/1
f 6/49/2 42/38/2 9/8/2
f 9/8/2 36/39/2 1/16/2
f 30/46/4 39/15/4 31/45/4
f 29/50/4 38/11/4 30/46/4
f 39/3/1 28/51/1 31/47/1
f 27/52/4 37/10/4 29/50/4
f 29/50/6 25/22/6 33/27/6
f 21/32/3 24/24/3 25/22/3
f 29/50/5 32/53/5 27/52/5
f 16/20/5 14/54/5 12/37/5
f 16/20/6 3/12/6 15/4/6
f 18/6/5 11/36/5 13/35/5
f 17/21/1 10/5/1 7/13/1
f 5/7/6 41/40/6 6/49/6
f 37/10/3 40/42/3 41/40/3
f 2/1/1 1/16/1 36/2/1
f 15/4/2 3/55/2 10/5/2
f 5/7/3 6/49/3 9/8/3
f 37/10/4 5/7/4 8/9/4
f 3/12/5 4/56/5 7/13/5
f 38/11/4 8/9/4 2/1/4
f 8/9/3 9/8/3 1/16/3
f 26/17/2 18/6/2 13/18/2
f 7/13/4 4/56/4 16/20/4
f 25/22/2 15/4/2 18/6/2
f 12/23/6 14/57/6 24/24/6
f 24/26/2 14/54/2 15/4/2
f 33/27/2 25/22/2 26/17/2
f 34/28/2 26/17/2 20/19/2
f 17/21/4 22/33/4 23/30/4
f 17/21/4 16/20/4 21/32/4
f 23/34/1 20/48/1 13/35/1
f 12/37/4 19/58/4 21/32/4
f 42/38/2 34/28/2 28/29/2
f 41/40/2 33/27/2 34/28/2
f 27/41/6 32/59/6 40/42/6
f 40/44/2 32/53/2 33/27/2
f 22/33/4 30/46/4 31/45/4
f 21/32/4 29/50/4 30/46/4
f 31/47/1 28/51/1 20/48/1
f 6/49/2 41/40/2 42/38/2
f 9/8/2 42/38/2 36/39/2
f 30/46/4 38/11/4 39/15/4
f 29/50/4 37/10/4 38/11/4
f 39/3/1 36/2/1 28/51/1
f 27/52/4 35/60/4 37/10/4
f 29/50/6 21/32/6 25/22/6
f 21/32/3 19/58/3 24/24/3
f 29/50/5 33/27/5 32/53/5
f 16/20/5 15/4/5 14/54/5
f 16/20/6 4/56/6 3/12/6
f 18/6/5 17/21/5 11/36/5
f 17/21/1 18/6/1 10/5/1
f 5/7/6 37/10/6 41/40/6
f 37/10/3 35/60/3 40/42/3
