# Blender 4.5.4 LTS
# www.blender.org
o Cube.169
v 0.000000 0.000001 1.479035
v 0.000000 0.635489 1.479035
v 0.000000 0.000001 0.149130
v 0.000000 0.635489 0.149130
v 33.791374 0.000044 1.479035
v 33.791374 0.635533 1.479035
v 33.791374 0.000044 0.149130
v 33.791374 0.635533 0.149130
vn -1.0000 -0.0000 -0.0000
vn -0.0000 -0.0000 -1.0000
vn 1.0000 -0.0000 -0.0000
vn -0.0000 -0.0000 1.0000
vn -0.0000 -1.0000 -0.0000
vn -0.0000 1.0000 -0.0000
vt 0.367200 0.031563
vt 0.300000 0.098763
vt 0.300000 0.031563
vt 0.367200 0.098763
vt 0.300000 0.165964
vt 0.367200 0.165964
vt 0.300000 0.233164
vt 0.367200 0.300365
vt 0.300000 0.300365
vt 0.232799 0.233164
vt 0.232799 0.165964
vt 0.434401 0.165964
vt 0.367200 0.233164
vt 0.434401 0.233164
s 0
f 2/1/1 3/2/1 1/3/1
f 4/4/2 7/5/2 3/2/2
f 8/6/3 5/7/3 7/5/3
f 5/7/4 2/8/4 1/9/4
f 7/5/5 1/10/5 3/11/5
f 4/12/6 6/13/6 8/6/6
f 2/1/1 4/4/1 3/2/1
f 4/4/2 8/6/2 7/5/2
f 8/6/3 6/13/3 5/7/3
f 5/7/4 6/13/4 2/8/4
f 7/5/5 5/7/5 1/10/5
f 4/12/6 2/14/6 6/13/6
o Cube.171
v 0.000000 11.274048 1.479035
v 0.000000 12.060482 1.479035
v 0.000000 11.274048 0.149130
v 0.000000 12.060482 0.149130
v 33.791374 11.274092 1.479035
v 33.791374 12.060527 1.479035
v 33.791374 11.274092 0.149130
v 33.791374 12.060527 0.149130
vn -1.0000 -0.0000 -0.0000
vn -0.0000 -0.0000 -1.0000
vn 1.0000 -0.0000 -0.0000
vn -0.0000 -0.0000 1.0000
vn -0.0000 -1.0000 -0.0000
vn -0.0000 1.0000 -0.0000
vt 0.384277 0.029109
vt 0.309311 0.104075
vt 0.309311 0.029109
vt 0.384277 0.104075
vt 0.309311 0.179042
vt 0.384277 0.179042
vt 0.309311 0.254008
vt 0.384277 0.328974
vt 0.309311 0.328974
vt 0.234344 0.254008
vt 0.234344 0.179042
vt 0.459243 0.179042
vt 0.384277 0.254008
vt 0.459243 0.254008
s 0
f 10/15/7 11/16/7 9/17/7
f 12/18/8 15/19/8 11/16/8
f 16/20/9 13/21/9 15/19/9
f 13/21/10 10/22/10 9/23/10
f 15/19/11 9/24/11 11/25/11
f 12/26/12 14/27/12 16/20/12
f 10/15/7 12/18/7 11/16/7
f 12/18/8 16/20/8 15/19/8
f 16/20/9 14/27/9 13/21/9
f 13/21/10 14/27/10 10/22/10
f 15/19/11 13/21/11 9/24/11
f 12/26/12 10/28/12 14/27/12
o window.004
v 1.885942 2.038661 0.814614
v 1.885942 9.870653 0.814614
v 1.885942 2.038661 0.626380
v 1.885942 9.870653 0.626380
v 31.905441 2.038661 0.814614
v 31.905441 9.870653 0.814614
v 31.905441 2.038661 0.626380
v 31.905441 9.870653 0.626380
v 0.000002 0.635216 1.609166
v 0.000002 11.274097 1.609166
v 0.000002 11.274097 0.000001
v 0.000002 0.635216 0.000001
v 33.791382 0.635216 0.000001
v 33.791382 11.274097 0.000001
v 33.791382 11.274097 1.609166
v 33.791382 0.635216 1.609166
v 1.494279 1.617704 1.609166
v 1.494279 10.291609 1.609166
v 1.494279 10.291609 0.000001
v 1.494279 1.617704 0.000001
v 32.297104 1.617704 0.000001
v 32.297104 10.291609 0.000001
v 32.297104 10.291609 1.609166
v 32.297104 1.617704 1.609166
v 32.388039 1.708801 1.609166
v 32.297104 1.728925 1.609166
v 32.297104 9.721846 1.609166
v 32.388039 9.917729 1.609166
v 32.296989 1.748621 1.609018
v 15.827899 2.038661 0.626380
v 15.827899 9.870653 0.626380
v 15.827899 2.038661 0.814614
v 15.827899 9.870653 0.814614
v 16.216974 0.635216 0.000001
v 16.216974 0.635216 1.609166
v 16.216974 11.274097 0.000001
v 16.216974 11.274097 1.609166
v 16.300375 1.617704 0.000001
v 16.300375 10.291609 0.000001
v 16.300375 1.617704 1.609166
v 16.300375 10.291609 1.609166
v 18.127491 2.038661 0.626380
v 18.127491 9.870653 0.626380
v 18.127491 2.038661 0.814614
v 18.127491 9.870653 0.814614
v 17.718100 0.635216 0.000001
v 17.718100 0.635216 1.609166
v 17.718100 11.274097 0.000001
v 17.718100 11.274097 1.609166
v 17.650787 1.617704 0.000001
v 17.650787 10.291609 0.000001
v 17.650787 1.617704 1.609166
v 17.650787 10.291609 1.609166
vn -1.0000 -0.0000 -0.0000
vn 1.0000 -0.0000 -0.0000
vn -0.0000 -0.0000 -1.0000
vn -0.0000 -0.0000 1.0000
vn -0.0000 -1.0000 -0.0000
vn -0.0000 1.0000 -0.0000
vn 0.8969 -0.0000 0.4421
vn 0.8479 -0.0000 -0.5302
vn -0.0000 0.8300 -0.5578
vn -0.8479 -0.0000 -0.5302
vn -0.8970 -0.0000 0.4421
vn -0.0000 -0.8300 -0.5578
vn -0.0000 0.8836 0.4682
vn 0.0017 0.0075 1.0000
vn -0.0016 -0.0000 1.0000
vn -0.0000 -0.8836 0.4682
vn -0.7984 -0.0000 -0.6022
vn 0.7958 -0.0000 -0.6056
vn 0.8575 -0.0000 0.5145
vn -0.8595 -0.0000 0.5111
vn -0.8969 -0.0000 0.4421
vn -0.7723 -0.0000 0.6353
vn -0.8972 -0.0019 0.4415
vt 0.421634 0.575649
vt 0.360766 0.636517
vt 0.360766 0.575649
vt 0.421634 0.697385
vt 0.360766 0.758253
vt 0.360766 0.697385
vt 0.412889 0.668118
vt 0.369511 0.692857
vt 0.369511 0.668118
vt 0.412889 0.790133
vt 0.369511 0.814593
vt 0.369511 0.790133
vt 0.331703 0.758253
vt 0.331703 0.697385
vt 0.416013 0.816210
vt 0.360766 0.819121
vt 0.366387 0.816210
vt 0.366387 0.639428
vt 0.421634 0.636517
vt 0.416013 0.639428
vt 0.482502 0.697385
vt 0.453767 0.758253
vt 0.453767 0.697385
vt 0.366387 0.694474
vt 0.360766 0.668322
vt 0.366387 0.668191
vt 0.416013 0.694474
vt 0.421634 0.758253
vt 0.413874 0.760987
vt 0.421634 0.665252
vt 0.416013 0.665415
vt 0.360766 0.790386
vt 0.366387 0.790223
vt 0.369511 0.641045
vt 0.412889 0.641045
vt 0.416013 0.761164
vt 0.421634 0.787316
vt 0.416013 0.787447
vt 0.412889 0.692857
vt 0.369511 0.762782
vt 0.367136 0.761164
vt 0.412889 0.665505
vt 0.362907 0.696934
vt 0.362771 0.697337
vt 0.363040 0.696934
vt 0.416941 0.696977
vt 0.412889 0.787520
vt 0.412889 0.814593
vt 0.366387 0.665415
vt 0.416013 0.668191
vt 0.369511 0.665505
vt 0.421634 0.790386
vt 0.421634 0.819121
vt 0.360766 0.787316
vt 0.366387 0.787447
vt 0.421634 0.668322
vt 0.360766 0.665252
vt 0.450697 0.758253
vt 0.450697 0.697385
vt 0.328633 0.697385
vt 0.299898 0.758253
vt 0.299898 0.697385
vt 0.412889 0.762782
vt 0.369511 0.787520
vt 0.366387 0.761164
vt 0.416013 0.790223
vt 0.328633 0.758253
vt 0.482502 0.758253
vt 0.366908 0.760987
vt 0.367023 0.761164
vt 0.412753 0.761164
vt 0.418226 0.697342
s 0
f 26/29/13 28/30/13 25/31/13
f 30/32/14 32/33/14 29/34/14
f 59/35/15 23/36/15 58/37/15
f 49/38/16 17/39/16 48/40/16
f 29/34/17 63/41/17 62/42/17
f 34/43/16 25/44/16 33/45/16
f 36/46/15 27/47/15 35/48/15
f 27/49/18 53/50/18 52/51/18
f 37/52/15 62/53/15 66/54/15
f 38/55/15 29/34/15 37/52/15
f 32/33/16 31/56/16 44/57/16
f 35/48/15 52/58/15 55/59/15
f 33/45/16 51/60/16 56/61/16
f 17/39/19 34/43/19 33/45/19
f 19/62/20 35/48/20 20/63/20
f 39/64/16 65/65/16 69/66/16
f 58/37/21 37/52/21 66/54/21
f 24/67/22 37/52/22 23/36/22
f 21/68/23 45/69/23 39/64/23
f 47/70/24 35/48/24 55/59/24
f 48/40/25 33/45/25 56/61/25
f 42/71/26 41/72/26 45/73/26
f 41/72/27 43/74/27 45/73/27
f 61/75/28 39/64/28 69/66/28
f 49/38/28 34/43/28 18/76/28
f 54/77/29 47/70/29 55/59/29
f 67/78/30 58/37/30 66/54/30
f 46/79/21 36/46/21 19/62/21
f 34/43/16 53/80/16 26/81/16
f 56/61/16 63/82/16 68/83/16
f 55/59/15 64/84/15 67/78/15
f 36/46/15 50/85/15 28/30/15
f 52/51/18 65/86/18 64/87/18
f 50/88/17 25/89/17 28/90/17
f 66/54/15 55/59/15 67/78/15
f 20/63/15 46/79/15 19/62/15
f 22/91/16 60/92/16 21/68/16
f 64/87/18 31/56/18 30/32/18
f 38/55/15 64/84/15 30/32/15
f 40/93/16 63/82/16 32/33/16
f 59/35/24 38/55/24 24/67/24
f 60/92/25 40/93/25 21/68/25
f 60/92/31 69/66/31 68/83/31
f 57/94/32 48/40/32 56/61/32
f 57/94/16 65/65/16 53/80/16
f 54/77/15 62/53/15 50/85/15
f 62/42/17 51/95/17 50/88/17
f 57/94/16 68/83/16 69/66/16
f 26/29/13 27/47/13 28/30/13
f 30/32/14 31/56/14 32/33/14
f 59/35/15 24/67/15 23/36/15
f 49/38/16 18/76/16 17/39/16
f 29/34/17 32/33/17 63/41/17
f 34/43/16 26/81/16 25/44/16
f 36/46/15 28/30/15 27/47/15
f 27/49/18 26/96/18 53/50/18
f 37/52/15 29/34/15 62/53/15
f 38/55/15 30/32/15 29/34/15
f 41/97/16 42/98/16 40/93/16
f 39/64/16 43/99/16 44/57/16
f 41/97/16 40/93/16 32/33/16
f 31/56/16 39/64/16 44/57/16
f 44/57/16 41/97/16 32/33/16
f 35/48/15 27/47/15 52/58/15
f 33/45/16 25/44/16 51/60/16
f 17/39/19 18/76/19 34/43/19
f 19/62/20 36/46/20 35/48/20
f 39/64/16 31/56/16 65/65/16
f 58/37/21 23/36/21 37/52/21
f 24/67/22 38/55/22 37/52/22
f 39/64/33 22/91/33 21/68/33
f 21/68/33 40/93/33 42/98/33
f 45/69/34 43/99/34 39/64/34
f 21/68/35 42/98/35 45/69/35
f 47/70/24 20/63/24 35/48/24
f 48/40/25 17/39/25 33/45/25
f 41/72/16 44/100/16 43/74/16
f 61/75/28 22/91/28 39/64/28
f 49/38/28 57/94/28 34/43/28
f 54/77/29 46/79/29 47/70/29
f 67/78/30 59/35/30 58/37/30
f 46/79/21 54/77/21 36/46/21
f 34/43/16 57/94/16 53/80/16
f 56/61/16 51/60/16 63/82/16
f 55/59/15 52/58/15 64/84/15
f 36/46/15 54/77/15 50/85/15
f 52/51/18 53/50/18 65/86/18
f 50/88/17 51/95/17 25/89/17
f 66/54/15 54/77/15 55/59/15
f 20/63/15 47/70/15 46/79/15
f 22/91/16 61/75/16 60/92/16
f 64/87/18 65/86/18 31/56/18
f 38/55/15 67/78/15 64/84/15
f 40/93/16 68/83/16 63/82/16
f 59/35/24 67/78/24 38/55/24
f 60/92/25 68/83/25 40/93/25
f 60/92/31 61/75/31 69/66/31
f 57/94/32 49/38/32 48/40/32
f 57/94/16 69/66/16 65/65/16
f 54/77/15 66/54/15 62/53/15
f 62/42/17 63/41/17 51/95/17
f 57/94/16 56/61/16 68/83/16
