# Blender 4.5.4 LTS
# www.blender.org
o Cube.003
v 0.138733 0.189025 0.025731
v 0.138733 0.250980 0.025731
v 0.191939 0.189025 0.025731
v 0.191939 0.250980 0.025731
v 0.134358 0.250980 0.024140
v 0.196314 0.189025 0.024140
v 0.134358 0.189025 0.024140
v 0.196314 0.250980 0.024140
v 0.134358 0.189025 0.026647
v 0.196314 0.250980 0.026647
v 0.134358 0.250980 0.026647
v 0.196314 0.189025 0.026647
v 0.135926 0.189025 0.033441
v 0.134358 0.189025 0.031873
v 0.135326 0.189025 0.033321
v 0.134818 0.189025 0.032982
v 0.134478 0.189025 0.032473
v 0.134358 0.250980 0.031873
v 0.135926 0.250980 0.033441
v 0.134478 0.250980 0.032473
v 0.134818 0.250980 0.032982
v 0.135326 0.250980 0.033321
v 0.134358 0.189025 -0.005613
v 0.135926 0.189025 -0.007181
v 0.134478 0.189025 -0.006213
v 0.134818 0.189025 -0.006722
v 0.135326 0.189025 -0.007062
v 0.135926 0.250980 -0.007181
v 0.134358 0.250980 -0.005613
v 0.135326 0.250980 -0.007062
v 0.134818 0.250980 -0.006722
v 0.134478 0.250980 -0.006213
v 0.196314 0.189025 0.031873
v 0.194746 0.189025 0.033441
v 0.196194 0.189025 0.032473
v 0.195855 0.189025 0.032982
v 0.195346 0.189025 0.033321
v 0.194746 0.250980 0.033441
v 0.196314 0.250980 0.031873
v 0.195346 0.250980 0.033321
v 0.195855 0.250980 0.032982
v 0.196194 0.250980 0.032473
v 0.194746 0.189025 -0.007181
v 0.196314 0.189025 -0.005613
v 0.195346 0.189025 -0.007062
v 0.195855 0.189025 -0.006722
v 0.196194 0.189025 -0.006213
v 0.196314 0.250980 -0.005613
v 0.194746 0.250980 -0.007181
v 0.196194 0.250980 -0.006213
v 0.195855 0.250980 -0.006722
v 0.195346 0.250980 -0.007062
vn -0.0000 1.0000 -0.0000
vn -0.0000 -1.0000 -0.0000
vn 0.3418 -0.0000 0.9398
vn -0.2048 -0.0000 -0.9788
vn -0.3418 -0.0000 0.9398
vn 0.2048 -0.0000 -0.9788
vn -0.0980 -0.0000 0.9952
vn -0.3827 -0.0000 0.9239
vn -0.7071 -0.0000 0.7071
vn -0.9239 -0.0000 0.3827
vn -0.9952 -0.0000 0.0980
vn -0.0980 -0.0000 -0.9952
vn -0.3827 -0.0000 -0.9239
vn -0.7071 -0.0000 -0.7071
vn -0.9239 -0.0000 -0.3827
vn -0.9952 -0.0000 -0.0980
vn 0.9952 -0.0000 -0.0980
vn 0.9239 -0.0000 -0.3827
vn 0.7071 -0.0000 -0.7071
vn 0.3827 -0.0000 -0.9239
vn 0.0980 -0.0000 -0.9952
vn 0.0980 -0.0000 0.9952
vn 0.3827 -0.0000 0.9239
vn 0.7071 -0.0000 0.7071
vn 0.9239 -0.0000 0.3827
vn 0.9952 -0.0000 0.0980
vn -1.0000 -0.0000 -0.0000
vn 1.0000 -0.0000 -0.0000
vn 0.0001 -1.0000 -0.0000
vn -0.0001 1.0000 -0.0000
vt 0.812762 0.630813
vt 0.612522 0.643785
vt 0.612522 0.630813
vt 0.412281 0.630813
vt 0.212041 0.643785
vt 0.212041 0.630813
vt 0.412281 0.643785
vt 0.612522 0.118183
vt 0.412281 0.131172
vt 0.412281 0.118183
vt 0.612522 0.131172
vt 0.412281 0.144143
vt 0.812762 0.643785
vt 0.612522 0.656774
vt 0.212041 0.656774
vt 0.412281 0.656774
vt 0.612522 0.883011
vt 0.412281 0.884951
vt 0.412281 0.883011
vt 0.612522 0.884951
vt 0.412281 0.888079
vt 0.612522 0.087117
vt 0.412281 0.091543
vt 0.412281 0.087117
vt 0.612522 0.091543
vt 0.412281 0.094287
vt 0.412281 0.292426
vt 0.612522 0.290486
vt 0.612522 0.292426
vt 0.412281 0.290486
vt 0.612522 0.287358
vt 0.412281 0.287358
vt 0.612522 0.282932
vt 0.412281 0.282932
vt 0.612522 0.280188
vt 0.412281 0.494768
vt 0.612893 0.492024
vt 0.612522 0.494768
vt 0.411910 0.492024
vt 0.613950 0.489619
vt 0.410853 0.489619
vt 0.615533 0.488006
vt 0.409271 0.488006
vt 0.614270 0.484279
vt 0.411763 0.692388
vt 0.615172 0.687855
vt 0.613040 0.692388
vt 0.409631 0.687855
vt 0.613779 0.686060
vt 0.411024 0.686060
vt 0.612849 0.683413
vt 0.411955 0.683413
vt 0.612522 0.680669
vt 0.612522 0.094287
vt 0.217109 0.687839
vt 0.212041 0.680669
vt 0.812377 0.683413
vt 0.410533 0.484279
vt 0.215169 0.488144
vt 0.612522 0.144143
vt 0.412281 0.280188
vt 0.811278 0.489698
vt 0.412281 0.680669
vt 0.812762 0.656774
vt 0.612522 0.888079
vt 0.215169 0.687293
vt 0.213525 0.685739
vt 0.212427 0.683413
vt 0.812762 0.680669
vt 0.811278 0.685739
vt 0.809634 0.687293
vt 0.807694 0.687839
vt 0.212041 0.494768
vt 0.212427 0.492024
vt 0.213525 0.489698
vt 0.217109 0.487598
vt 0.807694 0.487598
vt 0.809634 0.488144
vt 0.812377 0.492024
vt 0.812762 0.494768
s 1
f 5/1/1 4/2/1 8/3/1
f 6/4/2 1/5/2 7/6/2
f 8/3/3 3/7/3 6/4/3
f 11/8/4 1/9/4 9/10/4
f 2/11/5 7/12/5 1/9/5
f 2/13/1 10/14/1 4/2/1
f 3/7/2 9/15/2 1/5/2
f 4/2/6 12/16/6 3/7/6
f 19/17/7 15/18/8 13/19/7
f 22/20/8 16/21/9 15/18/8
f 21/22/9 17/23/10 16/24/9
f 20/25/10 14/26/11 17/23/10
f 24/27/12 30/28/13 28/29/12
f 27/30/13 31/31/14 30/28/13
f 26/32/14 32/33/15 31/31/14
f 25/34/15 29/35/16 32/33/15
f 44/36/17 50/37/18 48/38/17
f 47/39/18 51/40/19 50/37/18
f 46/41/19 52/42/20 51/40/19
f 45/43/20 49/44/21 52/42/20
f 34/45/22 40/46/23 38/47/22
f 37/48/23 41/49/24 40/46/23
f 36/50/24 42/51/25 41/49/24
f 35/52/25 39/53/26 42/51/25
f 18/54/11 9/10/27 14/26/11
f 38/47/22 13/19/7 34/45/22
f 35/52/2 13/55/2 14/56/2
f 20/57/1 38/47/1 39/53/1
f 28/29/12 43/58/21 24/27/12
f 27/59/2 46/41/2 7/6/2
f 5/60/27 23/61/16 7/12/27
f 52/42/1 31/62/1 8/3/1
f 10/14/28 33/63/26 12/16/28
f 48/38/17 6/4/28 44/36/17
f 5/1/1 2/13/1 4/2/1
f 6/4/2 3/7/2 1/5/2
f 8/3/3 4/2/3 3/7/3
f 11/8/4 2/11/4 1/9/4
f 2/11/5 5/60/5 7/12/5
f 2/13/1 11/64/1 10/14/1
f 3/7/2 12/16/2 9/15/2
f 4/2/6 10/14/6 12/16/6
f 19/17/7 22/20/8 15/18/8
f 22/20/8 21/65/9 16/21/9
f 21/22/9 20/25/10 17/23/10
f 20/25/10 18/54/11 14/26/11
f 24/27/12 27/30/13 30/28/13
f 27/30/13 26/32/14 31/31/14
f 26/32/14 25/34/15 32/33/15
f 25/34/15 23/61/16 29/35/16
f 44/36/17 47/39/18 50/37/18
f 47/39/18 46/41/19 51/40/19
f 46/41/19 45/43/20 52/42/20
f 45/43/20 43/58/21 49/44/21
f 34/45/22 37/48/23 40/46/23
f 37/48/23 36/50/24 41/49/24
f 36/50/24 35/52/25 42/51/25
f 35/52/25 33/63/26 39/53/26
f 18/54/11 11/8/27 9/10/27
f 38/47/22 19/17/7 13/19/7
f 14/56/2 9/15/2 12/16/2
f 12/16/2 33/63/2 35/52/2
f 35/52/2 36/50/2 37/48/2
f 37/48/2 34/45/2 13/55/2
f 13/55/2 15/66/2 16/67/2
f 16/67/2 17/68/2 14/56/2
f 14/56/2 12/16/2 35/52/2
f 35/52/2 37/48/2 13/55/2
f 13/55/2 16/67/2 14/56/2
f 39/53/1 10/14/1 11/64/1
f 11/64/1 18/69/1 20/57/1
f 20/57/1 21/70/1 22/71/1
f 22/71/1 19/72/1 38/47/1
f 38/47/1 40/46/1 41/49/1
f 41/49/1 42/51/1 39/53/1
f 39/53/1 11/64/1 20/57/1
f 20/57/1 22/71/1 38/47/1
f 38/47/1 41/49/1 39/53/1
f 28/29/12 49/44/21 43/58/21
f 7/6/2 23/73/29 25/74/2
f 25/74/2 26/75/2 27/59/2
f 27/59/2 24/76/2 43/58/2
f 43/58/2 45/43/2 46/41/2
f 46/41/2 47/39/2 44/36/2
f 44/36/2 6/4/2 7/6/2
f 7/6/2 25/74/2 27/59/2
f 27/59/2 43/58/2 46/41/2
f 46/41/2 44/36/2 7/6/2
f 5/60/27 29/35/16 23/61/16
f 8/3/1 48/38/30 50/37/1
f 50/37/1 51/40/1 52/42/1
f 52/42/1 49/44/1 28/77/1
f 28/77/1 30/78/1 31/62/1
f 31/62/1 32/79/1 29/80/1
f 29/80/1 5/1/1 8/3/1
f 8/3/1 50/37/1 52/42/1
f 52/42/1 28/77/1 31/62/1
f 31/62/1 29/80/1 8/3/1
f 10/14/28 39/53/26 33/63/26
f 48/38/17 8/3/28 6/4/28
